PathFileType	4	(X/Y/Z)	RBDS03\RBDS03runT25.trc																																																																																														
DataRate	CameraRate	NumFrames	NumMarkers	Units	OrigDataRate	OrigDataStartFrame	OrigNumFrames																																																																																										
150	150	6	32	mm	150	1687	4500																																																																																										
Frame#	Time	L.ASIS			L.Heel.Bottom			L.Heel.Lateral			L.Heel.Top			L.Iliac.Crest			L.MT1			L.MT5			L.PSIS			L.Shank.Bottom.Lateral			L.Shank.Bottom.Medial			L.Shank.Top.Lateral			L.Shank.Top.Medial			L.Thigh.Bottom.Lateral			L.Thigh.Bottom.Medial			L.Thigh.Top.Lateral			L.Thigh.Top.Medial			R.ASIS			R.MT5			R.Heel.Bottom			R.Heel.Lateral			R.Heel.Top			R.Iliac.Crest			R.MT1			R.PSIS			R.Shank.Bottom.Lateral			R.Shank.Bottom.Medial			R.Shank.Top.Lateral			R.Shank.Top.Medial			R.Thigh.Bottom.Lateral			R.Thigh.Bottom.Medial			R.Thigh.Top.Lateral			R.Thigh.Top.Medial		
		X1	Y1	Z1	X2	Y2	Z2	X3	Y3	Z3	X4	Y4	Z4	X5	Y5	Z5	X6	Y6	Z6	X7	Y7	Z7	X8	Y8	Z8	X9	Y9	Z9	X10	Y10	Z10	X11	Y11	Z11	X12	Y12	Z12	X13	Y13	Z13	X14	Y14	Z14	X15	Y15	Z15	X16	Y16	Z16	X17	Y17	Z17	X18	Y18	Z18	X19	Y19	Z19	X20	Y20	Z20	X21	Y21	Z21	X22	Y22	Z22	X23	Y23	Z23	X24	Y24	Z24	X25	Y25	Z25	X26	Y26	Z26	X27	Y27	Z27	X28	Y28	Z28	X29	Y29	Z29	X30	Y30	Z30	X31	Y31	Z31	X32	Y32	Z32
																																																																																																	
1688	11.24666667	2304.365705	991.4501653	901.8287061	2068.919589	39.96246317	994.7514783	2103.857761	57.27040245	950.7606211	2083.431109	88.90505882	1002.327339	2224.732562	1042.609662	859.0149438	2291.875618	49.87076335	1038.061499	2261.872349	49.90413828	934.9881894	2140.653103	1018.127247	977.8650991	2194.113058	162.5071681	947.5363375	2149.895496	187.1809515	967.831043	2223.754974	233.2097913	924.8568822	2180.666091	258.5630553	945.4554423	2322.368306	565.4185295	891.1742717	2259.847728	559.3182416	929.1909522	2295.032464	668.491317	862.9883511	2232.491937	661.0784693	893.7575932	2321.547743	991.750877	1113.431075	1824.483856	373.4277888	1203.564407	1850.582631	536.5621959	1081.765305	1866.893101	511.7522887	1139.899622	1895.473742	516.3529461	1085.271114	2268.492025	1057.511782	1162.436719	1817.738658	323.1699452	1100.831654	2148.438802	1017.625123	1058.924171	1960.871119	474.1646461	1159.45136	1964.995655	501.9528523	1116.213153	2043.317096	488.8305881	1173.841422	2043.389418	517.2283668	1128.990058	2333.120443	577.4253514	1194.366173	2271.288619	558.5151273	1160.051425	2295.691034	681.2778179	1202.805625	2236.396737	662.6936315	1172.444881
1689	11.25333333	2303.220323	991.4845176	901.7776018	2052.073319	40.87540242	994.7986995	2087.125569	58.01079012	950.8104987	2066.796932	89.76290067	1002.322354	2223.259814	1042.913521	859.223835	2274.958595	49.80980046	1037.917319	2244.913076	49.6646739	935.097151	2139.524615	1019.2438	978.2874477	2178.288842	162.8069328	947.4661313	2134.521581	188.126092	967.8779778	2208.962126	233.0494256	924.8377996	2166.310286	259.0038877	945.4991977	2312.878162	563.9612582	891.0742511	2250.107129	558.9240763	928.8630201	2287.564925	667.6520541	863.1628285	2224.873288	661.3975076	893.9211622	2320.267923	992.7482531	1113.52327	1839.79265	363.7073851	1203.483132	1857.910077	528.6381344	1082.668252	1876.218807	504.176277	1139.911143	1903.568605	510.1683897	1085.619302	2266.825103	1059.027722	1162.505542	1833.52203	313.9982807	1100.534652	2147.218302	1019.011626	1059.349705	1971.673448	469.4658565	1158.817391	1975.250494	497.1700171	1115.36699	2053.895176	485.8661566	1172.990861	2053.315172	513.9703087	1127.937157	2341.280336	580.8075733	1194.845114	2279.710649	560.3348372	1161.033629	2301.503156	683.6844489	1203.466298	2242.323179	663.6502529	1173.737517
1690	11.26	2302.282854	992.3130962	901.7652788	2035.199771	42.19861865	994.7898342	2070.397099	59.04652863	950.7894553	2050.204617	91.02441565	1002.192821	2222.234096	1044.165922	859.3795426	2258.031849	49.74582207	1037.778255	2227.874344	49.42755452	935.1966475	2138.586559	1021.121651	978.7014735	2162.30791	163.5146318	947.2739299	2118.936603	189.3725758	967.8472127	2193.837119	233.3714381	924.6904357	2151.580949	259.8300075	945.4501391	2302.732168	563.2282197	890.9164557	2239.715951	559.3517266	928.4649438	2279.636827	667.5442927	863.3050756	2216.796136	662.542976	894.0178176	2319.185601	994.5754738	1113.625077	1855.249991	352.814478	1202.932744	1864.916679	519.4256206	1083.469378	1885.137013	495.3290099	1139.758765	1911.32225	502.9666105	1085.866336	2265.330779	1061.464376	1162.524985	1849.938074	303.7830326	1099.592207	2146.206547	1021.163561	1059.796343	1982.156519	464.1013366	1157.970462	1985.018634	491.7464229	1114.367149	2064.015787	482.6153653	1171.973875	2062.639483	510.4486121	1126.745956	2349.060377	585.0787829	1195.238144	2287.745172	563.1105295	1161.993669	2307.055077	686.9668934	1204.120033	2248.015446	665.538943	1175.034722
1691	11.26666667	2301.548094	993.9212891	901.7867424	2018.349599	44.04199401	994.724024	2053.721454	60.45450411	950.6879864	2033.722685	92.78737553	1001.918013	2221.678422	1046.312371	859.4833599	2241.100422	49.71188409	1037.631757	2210.75537	49.23459548	935.2821806	2137.849625	1023.733517	979.1152503	2146.258471	164.7334198	946.9535634	2103.227622	191.0274522	967.7292982	2178.486226	234.2865754	924.422073	2136.578155	261.1543059	945.3132621	2292.065248	563.3043485	890.7541466	2228.841371	560.68782	928.0857485	2271.364941	668.2276446	863.4599443	2208.393421	664.5698793	894.1131829	2318.308341	997.1825049	1113.727597	1870.896732	340.8522071	1201.922582	1871.711647	508.8964929	1084.101149	1893.727677	485.2060403	1139.429975	1918.817509	494.699927	1085.952246	2264.012237	1064.675412	1162.5288	1867.006867	292.641299	1098.035869	2145.405498	1024.043151	1060.265009	1992.347489	458.0465899	1156.931688	1994.334283	485.6656005	1113.246514	2073.672639	479.0288205	1170.828995	2071.368563	506.6296764	1125.470814	2356.408602	590.177003	1195.544762	2295.331668	566.7991389	1162.917576	2312.311798	691.0822956	1204.768045	2253.440065	668.3337818	1176.321465
1692	11.27333333	2301.019714	996.2793332	901.8333154	2001.583157	46.50356857	994.5987543	2037.156707	62.29798186	950.496651	2017.432257	95.13360615	1001.4776	2221.59511	1049.299912	859.5472767	2224.172501	49.71695493	1037.46781	2193.562377	49.10779294	935.34504	2137.333054	1027.047132	979.5305751	2130.220412	166.5448356	946.4845893	2087.482355	193.170729	967.5123182	2162.998288	235.8832146	924.0283652	2121.39116	263.0617218	945.0934632	2280.996777	564.252294	890.6290015	2217.632854	562.998298	927.8008356	2262.855659	669.7434289	863.6657035	2199.788277	667.5176096	894.2682987	2317.644792	1000.518629	1113.827545	1886.796371	327.9340445	1200.467356	1878.430292	497.0362671	1084.485532	1902.105181	473.8233898	1138.899413	1926.163326	485.3308069	1085.813923	2262.872136	1068.543348	1162.542519	1884.763282	280.7013095	1095.91936	2144.820184	1027.616344	1060.752017	2002.295459	451.2826593	1155.719842	2003.259706	478.9084929	1112.026398	2082.880369	475.0589716	1169.586825	2079.532774	502.4715121	1124.151364	2363.284626	596.029867	1195.768507	2302.42572	571.3486093	1163.782805	2317.249802	695.9774714	1205.410147	2258.57563	672.0019795	1177.571582
1693	11.28	2300.711372	999.3417955	901.8981623	1984.971772	49.66610428	994.4093808	2020.770513	64.6274328	950.2072458	2001.4274	98.1258228	1000.855838	2221.974073	1053.079328	859.5918816	2207.263499	49.74569341	1037.281834	2176.313227	49.05088719	935.3735292	2137.063465	1031.024827	979.9409801	2114.268255	169.0046103	945.8372164	2071.790413	195.8513594	967.1854569	2147.446826	238.2233324	923.4957812	2106.100508	265.6059024	944.7970393	2269.62952	566.1110998	890.5656111	2206.218018	566.3245288	927.6624558	2254.201699	672.1137737	863.9479208	2191.089816	671.4069213	894.5309509	2317.203782	1004.535062	1113.929419	1903.029686	314.1831736	1198.589211	1885.22827	483.8485298	1084.541366	1910.41113	461.2177368	1138.131386	1933.487848	474.8378043	1085.392014	2261.915694	1072.98737	1162.582832	1903.253891	268.0998047	1093.316017	2144.45946	1031.851686	1061.247744	2012.067375	443.8003164	1154.348874	2011.880797	471.457078	1110.714349	2091.672338	470.6647333	1168.266755	2087.184186	497.9269037	1122.808137	2369.656478	602.5534592	1195.915535	2308.994589	576.6952819	1164.561453	2321.852865	701.5870886	1206.043478	2263.407588	676.5006249	1178.749594
